#Comment line ignore any data following # character 
#Hierarchical Translation and Rotation (.htr) file 
[Header]	
#Header keywords are followed by a single value 
FileType HTR		#Single word string
DataType HTRS		#Translation followed by rotation and scale data
FileVersion 1		#integer
NumSegments 25		#integer
NumFrames 4		#integer
DataFrameRate 30		#integer, data frame rate in this file
EulerRotationOrder ZYX
CalibrationUnits mm
RotationUnits Degrees
GlobalAxisofGravity Y
BoneLengthAxis Y
ScaleFactor 1.00
[SegmentNames&Hierarchy]
#CHILD	PARENT
BN_Tick_Root GLOBAL
BN_Torso BN_Tick_Root
BN_L_Leg_Front01 BN_Torso
BN_L_Leg_Rear01 BN_Torso
BN_MetalTop BN_Torso
BN_Neck BN_Torso
BN_R_Leg_Front01 BN_Torso
BN_R_Leg_Rear01 BN_Torso
BN_Sack BN_Torso
BN_L_Leg_Front02 BN_L_Leg_Front01
BN_L_Leg_Front03 BN_L_Leg_Front02
BN_L_Leg_Rear02 BN_L_Leg_Rear01
BN_L_Leg_Rear03 BN_L_Leg_Rear02
BN_Head BN_Neck
BN_Needle BN_Head
BN_R_Leg_Front02 BN_R_Leg_Front01
BN_R_Leg_Front03 BN_R_Leg_Front02
BN_R_Leg_Rear02 BN_R_Leg_Rear01
BN_R_Leg_Rear03 BN_R_Leg_Rear02
BN_SackDef01 BN_Sack
BN_SackDef02 BN_Sack
BN_SackDef03 BN_Sack
BN_SackDef04 BN_Sack
BN_SackDef05 BN_Sack
BN_SackDef06 BN_Sack
[BasePosition]
#SegmentName Tx, Ty, Tz, Rx, Ry, Rz, BoneLength
BN_Tick_Root 0.000000 0.000000 0.000000 -90.000000 0.000000 0.000000 10.000000 
BN_Torso 0.000000 0.000000 0.000000 0.000000 0.000000 0.000000 10.000000 
BN_L_Leg_Front01 0.000000 0.000000 0.000000 0.000000 0.000000 0.000000 10.000000 
BN_L_Leg_Rear01 0.000000 0.000000 0.000000 0.000000 0.000000 0.000000 10.000000 
BN_MetalTop 0.000000 0.000000 0.000000 0.000000 0.000000 0.000000 10.000000 
BN_Neck 0.000000 0.000000 0.000000 0.000000 0.000000 0.000000 10.000000 
BN_R_Leg_Front01 0.000000 0.000000 0.000000 0.000000 0.000000 0.000000 10.000000 
BN_R_Leg_Rear01 0.000000 0.000000 0.000000 0.000000 0.000000 0.000000 10.000000 
BN_Sack 0.000000 0.000000 0.000000 0.000000 0.000000 0.000000 10.000000 
BN_L_Leg_Front02 0.000000 0.000000 0.000000 0.000000 0.000000 0.000000 10.000000 
BN_L_Leg_Front03 0.000000 0.000000 0.000000 0.000000 0.000000 0.000000 10.000000 
BN_L_Leg_Rear02 0.000000 0.000000 0.000000 0.000000 0.000000 0.000000 10.000000 
BN_L_Leg_Rear03 0.000000 0.000000 0.000000 0.000000 0.000000 0.000000 10.000000 
BN_Head 0.000000 0.000000 0.000000 0.000000 0.000000 0.000000 10.000000 
BN_Needle 0.000000 0.000000 0.000000 0.000000 0.000000 0.000000 10.000000 
BN_R_Leg_Front02 0.000000 0.000000 0.000000 0.000000 0.000000 0.000000 10.000000 
BN_R_Leg_Front03 0.000000 0.000000 0.000000 0.000000 0.000000 0.000000 10.000000 
BN_R_Leg_Rear02 0.000000 0.000000 0.000000 0.000000 0.000000 0.000000 10.000000 
BN_R_Leg_Rear03 0.000000 0.000000 0.000000 0.000000 0.000000 0.000000 10.000000 
BN_SackDef01 0.000000 0.000000 0.000000 0.000000 0.000000 0.000000 10.000000 
BN_SackDef02 0.000000 0.000000 0.000000 0.000000 0.000000 0.000000 10.000000 
BN_SackDef03 0.000000 0.000000 0.000000 0.000000 0.000000 0.000000 10.000000 
BN_SackDef04 0.000000 0.000000 0.000000 0.000000 0.000000 0.000000 10.000000 
BN_SackDef05 0.000000 0.000000 0.000000 0.000000 0.000000 0.000000 10.000000 
BN_SackDef06 0.000000 0.000000 0.000000 0.000000 0.000000 0.000000 10.000000 
#Beginning of Data. Separated by tabs
#Fr	Tx	Ty	Tz	Rx	Ry	Rz	SF
[BN_Tick_Root]
23 0.000000 0.000000 0.000000 0.000000 0.000000 -0.000020 0.000000
24 0.000000 0.000000 0.000000 0.000000 0.000000 -0.000020 0.000000
25 0.000000 0.000000 0.000000 0.000000 0.000000 -0.000020 0.000000
26 0.000000 0.000000 0.000000 0.000000 0.000000 -0.000020 0.000000
[BN_Torso]
23 3.563774 6.181057 93.917870 -28.603182 -29.980747 5.276091 94.188492
24 3.563640 6.184638 93.943375 -28.603182 -29.980747 5.276091 94.214149
25 3.563507 6.188219 93.968872 -28.603182 -29.980747 5.276091 94.239807
26 3.563373 6.191800 93.994370 -28.603182 -29.980747 5.276091 94.265465
[BN_L_Leg_Front01]
23 -68.477791 10.734189 -26.804373 -51.631805 -21.152559 132.305435 74.316254
24 -68.477791 10.734189 -26.804373 -51.637424 -21.145035 132.316452 74.316254
25 -68.477791 10.734189 -26.804373 -51.643055 -21.137510 132.327454 74.316254
26 -68.477791 10.734189 -26.804373 -51.648685 -21.129990 132.338486 74.316254
[BN_L_Leg_Rear01]
23 -72.133743 -73.994843 -18.268616 27.642033 9.325482 -154.701035 104.939293
24 -72.133743 -73.994843 -18.268616 27.637686 9.338629 -154.708603 104.939293
25 -72.133743 -73.994843 -18.268616 27.633339 9.351771 -154.716156 104.939293
26 -72.133743 -73.994843 -18.268616 27.628990 9.364913 -154.723724 104.939293
[BN_MetalTop]
23 0.000008 13.737477 26.403606 105.149155 -29.825306 -110.848961 29.763546
24 0.000008 13.737477 26.403606 105.186806 -29.678848 -110.708626 29.763546
25 0.000008 13.737477 26.403606 105.202888 -29.655548 -110.680809 29.763546
26 0.000008 13.737477 26.403606 105.218987 -29.632244 -110.653000 29.763546
[BN_Neck]
23 0.000014 95.233284 10.002091 -148.348770 -29.408243 89.999939 95.757088
24 0.000014 95.233284 10.002091 -148.348770 -29.408243 89.999939 95.757088
25 0.000014 95.233284 10.002091 -148.348770 -29.408243 89.999939 95.757088
26 0.000014 95.233284 10.002091 -148.348770 -29.408243 89.999939 95.757088
[BN_R_Leg_Front01]
23 68.477768 10.734107 -26.804314 100.801559 30.000862 61.465508 74.316193
24 68.477768 10.734107 -26.804314 100.807022 30.022606 61.451862 74.316193
25 68.477768 10.734107 -26.804314 100.812469 30.044336 61.438210 74.316193
26 68.477768 10.734107 -26.804314 100.817909 30.066067 61.424553 74.316193
[BN_R_Leg_Rear01]
23 72.133751 -73.994873 -18.268644 -76.097260 75.554123 -52.377014 104.939331
24 72.133751 -73.994873 -18.268644 -76.532761 75.730423 -52.925224 104.939331
25 72.133751 -73.994873 -18.268644 -76.597198 75.797424 -53.005806 104.939331
26 72.133751 -73.994873 -18.268644 -76.662285 75.864372 -53.087025 104.939331
[BN_Sack]
23 -0.000000 -78.024918 33.657791 88.211060 -9.833507 -93.682838 84.974907
24 -0.000000 -78.024918 33.657791 87.686958 -11.031614 -94.971909 84.974907
25 -0.000000 -78.024918 33.657791 87.290871 -12.028553 -96.057617 84.974907
26 -0.000000 -78.024918 33.657791 87.041862 -12.711776 -96.813232 84.974907
[BN_L_Leg_Front02]
23 142.805023 -0.000015 -0.000104 0.183235 0.296967 -92.703934 142.805023
24 142.805023 -0.000015 -0.000104 0.183235 0.296967 -92.703934 142.805023
25 142.805023 -0.000015 -0.000104 0.183235 0.296967 -92.703934 142.805023
26 142.805023 -0.000015 -0.000104 0.183235 0.296967 -92.703934 142.805023
[BN_L_Leg_Front03]
23 124.143021 -0.000045 0.000007 0.353362 -0.441911 100.329872 124.143021
24 124.143021 -0.000045 0.000007 0.353362 -0.441911 100.329872 124.143021
25 124.143021 -0.000045 0.000007 0.353362 -0.441911 100.329872 124.143021
26 124.143021 -0.000045 0.000007 0.353362 -0.441911 100.329872 124.143021
[BN_L_Leg_Rear02]
23 139.939041 0.000075 -0.000022 0.143457 -0.186082 75.574715 139.939041
24 139.939041 0.000075 -0.000022 0.143457 -0.186082 75.574715 139.939041
25 139.939041 0.000075 -0.000022 0.143457 -0.186082 75.574715 139.939041
26 139.939041 0.000075 -0.000022 0.143457 -0.186082 75.574715 139.939041
[BN_L_Leg_Rear03]
23 142.839615 0.000179 -0.000060 0.000003 -0.000003 -88.940514 142.839615
24 142.839615 0.000179 -0.000060 0.000003 -0.000003 -88.940514 142.839615
25 142.839615 0.000179 -0.000060 0.000003 -0.000003 -88.940514 142.839615
26 142.839615 0.000179 -0.000060 0.000003 -0.000003 -88.940514 142.839615
[BN_Head]
23 57.062447 -0.000030 0.000000 31.760077 29.789436 -33.763454 57.062447
24 57.062447 -0.000030 0.000000 31.760077 29.789436 -33.763454 57.062447
25 57.062447 -0.000030 0.000000 31.760077 29.789436 -33.763454 57.062447
26 57.062447 -0.000030 0.000000 31.760077 29.789436 -33.763454 57.062447
[BN_Needle]
23 33.915161 69.677544 -0.000060 0.000003 0.000030 87.896805 77.493217
24 33.915161 69.677544 -0.000060 0.000003 0.000030 87.896805 77.493217
25 33.915161 69.677544 -0.000060 0.000003 0.000030 87.896805 77.493217
26 33.915161 69.677544 -0.000060 0.000003 0.000030 87.896805 77.493217
[BN_R_Leg_Front02]
23 142.804947 -0.000060 0.000060 -0.193036 0.296610 92.706657 142.804947
24 142.804947 -0.000060 0.000060 -0.193036 0.296610 92.706657 142.804947
25 142.804947 -0.000060 0.000060 -0.193036 0.296610 92.706657 142.804947
26 142.804947 -0.000060 0.000060 -0.193036 0.296610 92.706657 142.804947
[BN_R_Leg_Front03]
23 124.143005 -0.000060 -0.000156 -0.353343 -0.441338 -100.329697 124.143005
24 124.143005 -0.000060 -0.000156 -0.353343 -0.441338 -100.329697 124.143005
25 124.143005 -0.000060 -0.000156 -0.353343 -0.441338 -100.329697 124.143005
26 124.143005 -0.000060 -0.000156 -0.353343 -0.441338 -100.329697 124.143005
[BN_R_Leg_Rear02]
23 139.939011 -0.000149 0.000015 -0.130192 -0.173712 -75.585640 139.939011
24 139.939011 -0.000149 0.000015 -0.130192 -0.173712 -75.585640 139.939011
25 139.939011 -0.000149 0.000015 -0.130192 -0.173712 -75.585640 139.939011
26 139.939011 -0.000149 0.000015 -0.130192 -0.173712 -75.585640 139.939011
[BN_R_Leg_Rear03]
23 142.839417 0.000075 0.000119 0.000002 0.000017 88.940636 142.839417
24 142.839417 0.000075 0.000119 0.000002 0.000017 88.940636 142.839417
25 142.839417 0.000075 0.000119 0.000002 0.000017 88.940636 142.839417
26 142.839417 0.000075 0.000119 0.000002 0.000017 88.940636 142.839417
[BN_SackDef01]
23 249.782272 -3.760844 42.949425 -128.408218 -44.374973 -11.740845 253.475800
24 249.782272 -3.760844 42.949425 -128.408218 -44.374973 -11.740845 253.475800
25 249.782272 -3.760844 42.949425 -128.408218 -44.374973 -11.740845 253.475800
26 249.782272 -3.760844 42.949425 -128.408218 -44.374973 -11.740845 253.475800
[BN_SackDef02]
23 138.789795 -62.131748 45.674385 32.077126 -27.375721 -88.781525 158.773758
24 138.789795 -62.131748 45.674385 32.077126 -27.375721 -88.781525 158.773758
25 138.789795 -62.131748 45.674385 32.077126 -27.375721 -88.781525 158.773758
26 138.789795 -62.131748 45.674385 32.077126 -27.375721 -88.781525 158.773758
[BN_SackDef03]
23 249.782272 -3.760785 -42.949661 18.144459 44.375008 -11.740894 253.475845
24 249.782272 -3.760785 -42.949661 18.144459 44.375008 -11.740894 253.475845
25 249.782272 -3.760785 -42.949661 18.144459 44.375008 -11.740894 253.475845
26 249.782272 -3.760785 -42.949661 18.144459 44.375008 -11.740894 253.475845
[BN_SackDef04]
23 138.789780 -62.131645 -45.674473 146.059982 27.375723 -88.781555 158.773743
24 138.789780 -62.131645 -45.674473 146.059982 27.375723 -88.781555 158.773743
25 138.789780 -62.131645 -45.674473 146.059982 27.375723 -88.781555 158.773743
26 138.789780 -62.131645 -45.674473 146.059982 27.375723 -88.781555 158.773743
[BN_SackDef05]
23 118.790161 46.167137 -63.831196 0.155741 51.314110 90.605110 142.537460
24 118.790161 46.167137 -63.831196 0.155741 51.314110 90.605110 142.537460
25 118.790161 46.167137 -63.831196 0.155741 51.314110 90.605110 142.537460
26 118.790161 46.167137 -63.831196 0.155741 51.314110 90.605110 142.537460
[BN_SackDef06]
23 118.790207 46.167194 63.831219 152.058487 -51.314072 90.605019 142.537537
24 118.790207 46.167194 63.831219 152.058487 -51.314072 90.605019 142.537537
25 118.790207 46.167194 63.831219 152.058487 -51.314072 90.605019 142.537537
26 118.790207 46.167194 63.831219 152.058487 -51.314072 90.605019 142.537537
